<svg width="20" height="20" viewBox="0 0 20 20" fill="none" xmlns="http://www.w3.org/2000/svg">
<path d="M18.3382 7.3172L4.33817 0.317199C3.78566 0.0422077 3.16179 -0.0556909 2.55161 0.0368503C1.94142 0.129391 1.37463 0.407869 0.928503 0.834314C0.482376 1.26076 0.178625 1.81442 0.058665 2.41981C-0.0612951 3.0252 0.00837356 3.65285 0.258172 4.2172L2.65817 9.5872C2.71263 9.71703 2.74068 9.85641 2.74068 9.9972C2.74068 10.138 2.71263 10.2774 2.65817 10.4072L0.258172 15.7772C0.0548723 16.2339 -0.0310721 16.7342 0.00814931 17.2326C0.0473707 17.7309 0.210514 18.2116 0.482754 18.6309C0.754994 19.0502 1.1277 19.3948 1.567 19.6334C2.00629 19.872 2.49825 19.9971 2.99817 19.9972C3.4664 19.9925 3.92766 19.8832 4.34817 19.6772L18.3482 12.6772C18.8448 12.4274 19.2622 12.0445 19.5539 11.5713C19.8455 11.0981 20 10.5531 20 9.9972C20 9.44131 19.8455 8.89635 19.5539 8.42312C19.2622 7.94989 18.8448 7.56701 18.3482 7.3172H18.3382ZM17.4482 10.8872L3.44817 17.8872C3.26433 17.9755 3.0579 18.0054 2.85656 17.973C2.65521 17.9407 2.46858 17.8475 2.32168 17.7061C2.17479 17.5646 2.07465 17.3816 2.0347 17.1816C1.99475 16.9816 2.0169 16.7742 2.09817 16.5872L4.48817 11.2172C4.51911 11.1455 4.54582 11.072 4.56817 10.9972H11.4582C11.7234 10.9972 11.9777 10.8918 12.1653 10.7043C12.3528 10.5168 12.4582 10.2624 12.4582 9.9972C12.4582 9.73198 12.3528 9.47763 12.1653 9.29009C11.9777 9.10256 11.7234 8.9972 11.4582 8.9972H4.56817C4.54582 8.92237 4.51911 8.84891 4.48817 8.7772L2.09817 3.4072C2.0169 3.22016 1.99475 3.01275 2.0347 2.81277C2.07465 2.61279 2.17479 2.4298 2.32168 2.28835C2.46858 2.14689 2.65521 2.05373 2.85656 2.02135C3.0579 1.98897 3.26433 2.01893 3.44817 2.1072L17.4482 9.1072C17.612 9.19112 17.7494 9.31861 17.8454 9.47564C17.9414 9.63268 17.9922 9.81315 17.9922 9.9972C17.9922 10.1812 17.9414 10.3617 17.8454 10.5188C17.7494 10.6758 17.612 10.8033 17.4482 10.8872Z" fill="#C4C4C4"/>
</svg>
