<svg width="20" height="20" viewBox="0 0 20 20" fill="none" xmlns="http://www.w3.org/2000/svg">
<path d="M17.3192 13.2858C17.349 13.2871 17.3788 13.2871 17.4084 13.2858M17.3192 13.2858H17.4084M17.3192 13.2858H14.5M17.4084 13.2858C17.6766 13.2747 17.9335 13.1638 18.1327 12.971C18.3539 12.757 18.4859 12.4594 18.5 12.1431V4.14369C18.4859 3.8274 18.3539 3.52979 18.1327 3.31573C17.9115 3.10167 17.6191 2.98851 17.3192 3.00092H6.68083C6.38089 2.98851 6.08846 3.10167 5.86727 3.31573C5.64608 3.52979 5.51406 3.8274 5.5 4.14369V6M17.4084 13.2858H17.4167M13.3192 16.2858C13.6191 16.2983 13.9115 16.1851 14.1327 15.971C14.3539 15.757 14.4859 15.4594 14.5 15.1431V7.14369C14.4859 6.8274 14.3539 6.52979 14.1327 6.31573C13.9115 6.10167 13.6191 5.98851 13.3192 6.00092H2.68083C2.38089 5.98851 2.08846 6.10167 1.86727 6.31573C1.64608 6.52979 1.51406 6.8274 1.5 7.14369V15.1431C1.51406 15.4594 1.64608 15.757 1.86727 15.971C2.08846 16.1851 2.38089 16.2983 2.68083 16.2858H8.66625L10.4375 18L12.2087 16.2858H13.4167" stroke="#C4C4C4" stroke-width="1.5" stroke-linecap="round" stroke-linejoin="round"/>
</svg>
