<svg width="22" height="20" viewBox="0 0 22 20" fill="none" xmlns="http://www.w3.org/2000/svg">
<path d="M18.5394 0.165195L2.91505 1.10302C2.29907 1.14112 1.70983 1.36828 1.22767 1.75351C0.745505 2.13875 0.393886 2.66331 0.220751 3.25569C0.0476163 3.84806 0.0613905 4.47942 0.260196 5.06369C0.459002 5.64795 0.833164 6.15668 1.33167 6.52052L6.09513 9.97107C6.20721 10.0563 6.30119 10.163 6.37158 10.2849C6.44198 10.4068 6.48738 10.5415 6.50513 10.6812L7.11167 16.5318C7.16396 17.0289 7.33967 17.5052 7.62283 17.9172C7.90598 18.3292 8.28761 18.6639 8.73302 18.8909C9.17843 19.1179 9.6735 19.2299 10.1733 19.2169C10.673 19.2039 11.1616 19.0662 11.5946 18.8164C11.9977 18.5782 12.3425 18.2529 12.6037 17.8643L21.2281 4.80209C21.5332 4.33745 21.7033 3.79715 21.7193 3.24149C21.7352 2.68583 21.5965 2.13665 21.3186 1.65524C21.0406 1.17382 20.6344 0.779097 20.1452 0.515106C19.656 0.251116 19.103 0.128242 18.5481 0.160195L18.5394 0.165195ZM19.5536 3.70191L10.9293 16.7641C10.8142 16.9324 10.6504 17.0616 10.4599 17.1342C10.2693 17.2069 10.0611 17.2195 9.86315 17.1704C9.66521 17.1214 9.48699 17.013 9.35241 16.8598C9.21782 16.7066 9.13329 16.5159 9.11016 16.3133L8.49496 10.4677C8.4859 10.3901 8.4723 10.3131 8.45424 10.2372L14.4212 6.79217C14.6508 6.65956 14.8184 6.44114 14.8871 6.18496C14.9557 5.92878 14.9198 5.65583 14.7872 5.42614C14.6546 5.19646 14.4362 5.02886 14.18 4.96022C13.9238 4.89158 13.6508 4.92751 13.4212 5.06012L7.45424 8.50512C7.39747 8.45149 7.33761 8.40122 7.27496 8.35459L2.52016 4.89904C2.35625 4.77769 2.23337 4.60914 2.16797 4.41598C2.10258 4.22282 2.09781 4.01428 2.1543 3.81833C2.21079 3.62237 2.32583 3.44838 2.48401 3.31966C2.6422 3.19095 2.83595 3.11368 3.03929 3.0982L18.6636 2.16038C18.8475 2.15115 19.0303 2.19284 19.1919 2.28083C19.3536 2.36883 19.4878 2.49973 19.5798 2.65912C19.6718 2.81851 19.7181 3.00021 19.7135 3.18419C19.7088 3.36818 19.6535 3.54733 19.5536 3.70191Z" fill="#46535A"/>
</svg>
