<svg width="20" height="12" viewBox="0 0 20 12" fill="none" xmlns="http://www.w3.org/2000/svg">
<path d="M4.99996 2.0021H19C19.6 2.0021 20 1.6021 20 1.0021C20 0.402099 19.6 0.00209873 19 0.00209873H4.99996C4.39996 0.00209873 3.99996 0.402099 3.99996 1.0021C3.99996 1.6021 4.39996 2.0021 4.99996 2.0021ZM19 5.0021H4.99996C4.39996 5.0021 3.99996 5.4021 3.99996 6.0021C3.99996 6.6021 4.39996 7.0021 4.99996 7.0021H19C19.6 7.0021 20 6.6021 20 6.0021C20 5.4021 19.6 5.0021 19 5.0021ZM19 10.0021H4.99996C4.39996 10.0021 3.99996 10.4021 3.99996 11.0021C3.99996 11.6021 4.39996 12.0021 4.99996 12.0021H19C19.6 12.0021 20 11.6021 20 11.0021C20 10.4021 19.6 10.0021 19 10.0021ZM1.69996 0.302099C1.59996 0.202099 1.49996 0.102099 1.39996 0.102099C0.999963 -0.0979014 0.599963 0.00209892 0.299963 0.302099C0.199963 0.402099 0.0999625 0.502099 0.0999625 0.602099C-3.75286e-05 0.902099 -3.75286e-05 1.1021 0.0999625 1.4021C0.199962 1.5021 0.199963 1.6021 0.299963 1.7021C0.399963 1.8021 0.499962 1.9021 0.599962 1.9021C0.699962 2.0021 0.899963 2.0021 0.999963 2.0021C1.29996 2.0021 1.49996 1.9021 1.69996 1.7021C1.79996 1.6021 1.89996 1.5021 1.89996 1.4021C1.99996 1.1021 1.99996 0.902099 1.89996 0.602099C1.89996 0.502099 1.79996 0.402099 1.69996 0.302099ZM1.69996 5.3021C1.39996 5.0021 0.999962 4.9021 0.599962 5.1021C0.499962 5.2021 0.399963 5.2021 0.299963 5.3021C0.199963 5.4021 0.0999625 5.5021 0.0999625 5.6021C-3.75286e-05 5.8021 -3.75286e-05 6.1021 0.0999625 6.4021C0.199962 6.5021 0.199963 6.6021 0.299963 6.7021C0.399963 6.8021 0.499962 6.9021 0.599962 6.9021C0.699962 7.0021 0.899963 7.0021 0.999963 7.0021C1.09996 7.0021 1.29996 7.0021 1.39996 6.9021C1.49996 6.8021 1.59996 6.8021 1.69996 6.7021C1.79996 6.6021 1.89996 6.5021 1.89996 6.4021C1.99996 6.2021 1.99996 5.9021 1.89996 5.6021C1.89996 5.5021 1.79996 5.4021 1.69996 5.3021ZM1.69996 10.3021C1.59996 10.2021 1.49996 10.1021 1.39996 10.1021C1.19996 10.0021 0.899962 10.0021 0.599962 10.1021C0.499962 10.1021 0.399963 10.2021 0.299963 10.3021C0.199963 10.4021 0.0999625 10.5021 0.0999625 10.6021C-0.100038 11.0021 -3.74913e-05 11.4021 0.299963 11.7021C0.399963 11.8021 0.499962 11.9021 0.599962 11.9021C0.699962 12.0021 0.899963 12.0021 0.999963 12.0021C1.09996 12.0021 1.29996 12.0021 1.39996 11.9021C1.49996 11.8021 1.59996 11.8021 1.69996 11.7021C1.99996 11.4021 2.09996 11.0021 1.89996 10.6021C1.89996 10.5021 1.79996 10.4021 1.69996 10.3021Z" fill="white"/>
</svg>
